<svg width="66" height="38" viewBox="0 0 66 38" fill="none" xmlns="http://www.w3.org/2000/svg">
<path d="M3 16.5C1.61929 16.5 0.5 17.6193 0.5 19C0.5 20.3807 1.61929 21.5 3 21.5L3 16.5ZM64.7678 20.7678C65.7441 19.7915 65.7441 18.2085 64.7678 17.2322L48.8579 1.32233C47.8816 0.346024 46.2986 0.346024 45.3223 1.32233C44.346 2.29864 44.346 3.88156 45.3223 4.85787L59.4645 19L45.3223 33.1421C44.346 34.1184 44.346 35.7014 45.3223 36.6777C46.2986 37.654 47.8816 37.654 48.8579 36.6777L64.7678 20.7678ZM3 21.5L63 21.5L63 16.5L3 16.5L3 21.5Z" fill="white"/>
</svg>
