<svg width="80" height="65" fill="none" xmlns="http://www.w3.org/2000/svg"><path fill-rule="evenodd" clip-rule="evenodd" d="M60.097.184c-.182.105-2.31 2.05-4.726 4.323-2.418 2.273-4.724 4.338-5.126 4.588-1.124.7-1.762.865-4.002 1.036-3.398.259-5.6 1.017-7.536 2.594l-.874.712-.738-.614c-1.45-1.206-3.273-1.99-5.505-2.37l-1.016-.173-3.986-3.96c-2.192-2.177-4.152-4.043-4.354-4.146-.22-.112-.598-.146-.938-.084-.497.09-1.88 1.413-10.836 10.369C-.672 23.591-.351 23.219.226 24.309c.131.247 3.156 3.361 6.721 6.92l6.483 6.472-.75.98c-1.003 1.307-1.311 2.267-1.222 3.803.149 2.574 1.871 4.518 4.447 5.02l.962.187.1.725c.146 1.047.926 2.554 1.671 3.227.762.689 2.085 1.327 2.998 1.446.733.095.882.24.886.853.005.887.653 2.201 1.509 3.056.932.933 1.92 1.438 3.095 1.582.697.085.796.142.833.487.157 1.433.94 2.986 1.927 3.82 1.558 1.318 3.874 1.658 5.655.832a9.037 9.037 0 001.603-.992l.698-.572.665.545c.928.76 1.745 1.171 2.743 1.378 3.127.65 6.108-1.657 6.474-5.011.039-.347.136-.402.867-.492 1.198-.146 2.411-.8 3.24-1.745.727-.83 1.327-2.133 1.331-2.888.004-.617.153-.758.915-.857.987-.129 2.553-.954 3.226-1.7.694-.768 1.266-1.971 1.41-2.969l.104-.725.962-.187c2.607-.508 4.313-2.459 4.446-5.083.08-1.589-.303-2.693-1.33-3.835l-.721-.802 8.762-8.78c4.82-4.828 8.847-8.945 8.95-9.147.112-.22.145-.597.083-.938-.09-.495-1.279-1.747-9.036-9.517C66.02 4.482 61.776.35 61.503.22c-.593-.281-.96-.29-1.406-.035zm13.289 21.853l-2.829 2.829-7.643-7.84c-4.204-4.312-7.644-7.907-7.644-7.989 0-.081 1.23-1.304 2.735-2.717l2.736-2.57 7.736 7.73 7.737 7.729-2.828 2.828zM24.635 8.893l2.967 2.971-8.869 8.87-8.87 8.869-3.008-3.009-3.008-3.009 8.83-8.83c4.856-4.858 8.866-8.832 8.91-8.832.044 0 1.416 1.337 3.048 2.97zm37.152 1.014c-.884.744-.69 2.074.368 2.516 1.592.665 2.873-1.278 1.617-2.452-.622-.581-1.343-.604-1.985-.064zM60.662 19.2l7.676 7.884-4.189 4.19-4.188 4.191-6.594-6.593-6.595-6.593.683-.759c.933-1.038 1.018-1.797.283-2.532-.408-.409-.818-.528-1.456-.425-.257.041-1.853 1.512-4.689 4.322-2.364 2.342-4.474 4.349-4.688 4.46-.215.11-.782.2-1.261.2-1.618 0-2.879-1.116-3.068-2.718-.173-1.456.027-1.73 4.448-6.103 5.015-4.961 5.365-5.166 9.337-5.46 2.924-.216 4.318-.612 5.705-1.618.3-.219.631-.383.734-.364.103.018 3.64 3.582 7.862 7.918zm-42.398-6.005c-.65.651-.661 1.519-.025 2.155.649.649 1.513.648 2.163-.001.55-.551.55-1.412-.002-2.068a1.457 1.457 0 00-2.136-.086zm13.677.533c1.27.325 2.417.864 3.159 1.484l.462.387-2.354 2.397c-1.295 1.318-2.552 2.71-2.795 3.094-1.596 2.522-1.248 5.682.855 7.786 1.897 1.897 4.596 2.323 7.148 1.128.817-.382 1.468-.928 3.542-2.968l2.54-2.5 8.145 8.16c4.479 4.489 8.22 8.315 8.316 8.503.296.586.208 1.67-.183 2.25-.473.702-1.572 1.165-2.4 1.01-.527-.098-1.134-.637-4.684-4.163-4.044-4.015-4.085-4.05-4.74-4.05-1.262 0-2.003 1.32-1.319 2.349.142.212 1.963 2.11 4.048 4.216 4.009 4.05 4.132 4.22 3.91 5.4-.137.734-.974 1.58-1.695 1.716-1.363.256-1.446.198-5.66-3.984-2.149-2.133-4.061-3.956-4.249-4.052-.796-.406-1.641-.048-2.018.855-.163.39-.176.628-.053.956.09.24 1.912 2.196 4.048 4.345 4.192 4.219 4.41 4.522 4.073 5.694-.336 1.173-1.096 1.757-2.287 1.757-.823 0-1.415-.34-2.478-1.424-.657-.67-.805-.935-.968-1.732-.268-1.316-.766-2.23-1.69-3.105-.857-.81-2.21-1.424-3.137-1.424-.297 0-.54-.022-.54-.05 0-.027-.078-.464-.171-.97-.436-2.36-2.157-4.06-4.533-4.478-.912-.16-.924-.17-.924-.687 0-1.305-1.248-3.309-2.57-4.125-.61-.377-1.869-.784-2.435-.786-.357-.002-.41-.09-.57-.93-.246-1.29-.76-2.24-1.689-3.118-1.118-1.058-2.271-1.469-3.912-1.396-1.826.082-2.597.495-4.69 2.514l-1.718 1.656-1.838-1.824-1.837-1.825 9.183-9.184c5.051-5.051 9.26-9.184 9.354-9.184.094 0 .703.136 1.354.302zm34.4.55c-.604.263-.833.659-.833 1.436 0 .548.144.734 2 2.59 1.857 1.857 2.041 2 2.59 2 .854 0 1.506-.678 1.506-1.564 0-.616-.09-.742-1.759-2.455-1.52-1.562-2.414-2.252-2.886-2.228-.067.003-.346.103-.618.222zm-52.18 2.964c-.257.116-1.611 1.37-3.008 2.788-2.47 2.508-2.54 2.596-2.54 3.235 0 .895.648 1.57 1.507 1.57.56 0 .747-.153 3.373-2.778 2.614-2.615 2.779-2.814 2.779-3.366 0-.741-.353-1.287-.972-1.502-.585-.204-.559-.206-1.138.053zm9.295 17.36c.604.312 1.07.936 1.194 1.597.213 1.132-.045 1.494-3.488 4.92-2.803 2.787-3.332 3.246-3.854 3.342-.828.152-1.928-.311-2.4-1.012-.415-.616-.475-1.678-.131-2.326.25-.473 6.087-6.308 6.575-6.573.45-.245 1.583-.217 2.104.052zm5.595 5.551c1.02.622 1.447 2.075.91 3.096-.123.232-1.618 1.805-3.322 3.496-3.337 3.31-3.521 3.432-4.851 3.182-.695-.13-1.535-.953-1.689-1.655-.26-1.182-.09-1.434 3.18-4.736 1.691-1.708 3.285-3.237 3.543-3.4.61-.382 1.586-.375 2.23.017zm5.066 5.32c1.24.345 1.964 1.858 1.462 3.06-.273.652-5.541 6.081-6.451 6.648-.952.592-2.525.31-3.091-.553-.424-.647-.552-1.355-.37-2.04.137-.52.701-1.173 3.162-3.66 2.8-2.828 3.761-3.604 4.48-3.612.129-.001.492.07.808.157zm5.907 5.697c.604.313 1.07.936 1.195 1.597.212 1.132-.045 1.495-3.489 4.92-3.438 3.419-3.728 3.62-4.84 3.34-1.415-.355-2.213-2.078-1.545-3.336.25-.473 6.088-6.308 6.575-6.573.451-.245 1.584-.217 2.104.052zm3.787 5.826c.563.603.752 1.025.752 1.675 0 2.184-2.487 3.21-3.987 1.645l-.443-.463 1.55-1.627c.854-.895 1.591-1.634 1.64-1.643.048-.01.268.176.488.413z" fill="#fff"/></svg>