<svg width="80" height="53" fill="none" xmlns="http://www.w3.org/2000/svg"><path fill-rule="evenodd" clip-rule="evenodd" d="M32.774.173c-.822.218-1.921 1.24-2.244 2.083-.209.548-.25 1.02-.191 2.156l.076 1.455-1.657.511a40.11 40.11 0 00-2.906 1.028l-1.247.518-.257-.412c-.788-1.264-2.189-1.868-3.621-1.561-.616.132-.955.332-1.52.898-.978.977-1.174 1.735-.92 3.55l.185 1.325-1.425 1.33c-5.553 5.182-9.524 12.893-11.346 22.032-.434 2.175-.879 5.354-.882 6.301-.004 1.1-.112 1.25-1.03 1.441-2.313.48-3.988 2.788-3.77 5.194.16 1.764 1.192 3.206 2.904 4.058.724.36.736.36 8.552.406 7.767.046 7.83.044 8.247-.285.525-.412.577-1.245.108-1.715-.304-.304-.521-.312-7.87-.312H4.4l-.69-.36c-.77-.4-1.392-1.392-1.392-2.22 0-.846.623-1.836 1.401-2.228l.698-.352h50.76l.384-.384c.211-.21.384-.566.384-.788 0-.223-.173-.578-.384-.79l-.383-.383H7.004l.072-.352c.04-.193.117-.95.17-1.68.14-1.884.765-5.412 1.392-7.848 1.457-5.66 4.008-11.01 7.1-14.889 1.117-1.4 2.944-3.321 3.054-3.212.046.046.55 3.564 1.12 7.818.57 4.253 1.104 8.001 1.189 8.329.206.8 1.096 1.75 1.94 2.073 1.434.547 3.239-.008 3.989-1.229.685-1.113.684-1.37-.008-6.499-.388-2.876-.737-4.93-.873-5.14-.282-.436-.908-.604-1.408-.376-.754.343-.762.6-.156 5.12.31 2.313.604 4.463.652 4.78.07.45.018.644-.236.898-.441.441-1.19.428-1.478-.027-.334-.527-3.106-21.33-2.895-21.723.335-.626 1.24-.663 1.624-.067.118.182.436 1.985.707 4.005.282 2.1.589 3.824.717 4.024.279.436.905.604 1.405.376.71-.323.754-.704.391-3.405-.183-1.364-.37-2.662-.415-2.886-.076-.375.003-.444 1.059-.917 1.32-.592 4.354-1.613 4.464-1.503.041.041.453 4.458.914 9.815.462 5.357.947 10.198 1.078 10.756.711 3.021 3.119 5.269 6.204 5.79 3.537.6 7.139-1.489 8.38-4.858.432-1.173.411-.996 1.354-11.844.458-5.271.866-9.618.907-9.659.11-.11 3.144.911 4.465 1.503 1.056.474 1.134.542 1.057.917-.045.223-.651 4.638-1.346 9.811-1.354 10.08-1.346 9.938-.626 11.11.753 1.223 2.556 1.776 3.998 1.225.822-.314 1.736-1.308 1.942-2.11.079-.306.61-4.036 1.179-8.29.57-4.253 1.074-7.77 1.122-7.817.106-.103 2.003 1.902 3.112 3.29 1.397 1.75 2.71 3.875 3.907 6.32 2.607 5.332 4.03 10.717 4.655 17.628l.067.743H59.06l-.384.384c-.211.21-.384.566-.384.789 0 .222.173.577.384.788l.384.384 8.254.004c7.71.003 8.297.022 8.895.294.764.347 1.326 1.175 1.425 2.1.1.932-.463 1.93-1.356 2.401l-.68.36H49.433c-25.955 0-26.166.003-26.476.313-.467.467-.417 1.303.102 1.711l.415.326 26.438-.041 26.437-.041.782-.388c2.234-1.106 3.345-3.526 2.676-5.828-.487-1.673-1.955-3.055-3.61-3.399-.98-.203-.881.046-1.175-2.968-1.04-10.663-5.541-20.665-12.064-26.805l-1.43-1.346.184-1.317c.222-1.59.059-2.434-.635-3.275-.645-.782-1.538-1.21-2.528-1.21-1.292 0-2.218.513-2.9 1.607l-.256.412-1.248-.518a40.11 40.11 0 00-2.905-1.028l-1.657-.51.076-1.456c.06-1.136.017-1.608-.192-2.156C49.124 1.36 48.043.393 47.12.161c-.88-.222-13.507-.211-14.346.012zm14.161 2.483c.323.254.412.46.412.954 0 1.179-2.031 24.124-2.197 24.816-.355 1.483-1.435 2.79-2.867 3.47-2.211 1.05-4.586.579-6.224-1.234-.693-.767-.992-1.32-1.212-2.236-.165-.692-2.197-23.637-2.197-24.816 0-.495.09-.7.412-.954.402-.316.573-.324 6.937-.324 6.363 0 6.534.008 6.936.324zM59.3 8.629c.213.324.105 1.316-1.184 10.905-.887 6.596-1.502 10.68-1.641 10.9-.512.81-1.892.175-1.735-.799.043-.27.693-5.063 1.443-10.652.992-7.395 1.43-10.238 1.604-10.437.358-.406 1.224-.358 1.513.083z" fill="#fff"/></svg>