<svg width="80" height="81" fill="none" xmlns="http://www.w3.org/2000/svg"><path fill-rule="evenodd" clip-rule="evenodd" d="M5.65.153C2.968.68.687 3.008.167 5.75c-.221 1.164-.221 67.345 0 68.509.532 2.807 2.8 5.075 5.607 5.607 1.159.22 48.277.22 49.436 0 2.808-.532 5.075-2.8 5.608-5.607.099-.52.16-4.9.16-11.485V52.132l8.96-8.994c8.29-8.322 8.993-9.069 9.393-9.98.909-2.075.893-4.056-.047-6.066-1.246-2.662-4.43-4.349-7.287-3.86-2.18.374-2.72.762-7.067 5.088l-3.953 3.933v-9.547c0-5.736-.062-9.884-.157-10.39-.364-1.95-.815-2.55-5.22-6.955C51.194.956 50.594.505 48.644.14 47.597-.055 6.649-.043 5.65.153zm36.566 10.636c0 6.045.004 6.122.35 6.738.683 1.215.698 1.217 7.617 1.217h6.103v18.215l-5.317 5.314-5.316 5.315-1.797 5.406c-.988 2.973-1.795 5.611-1.794 5.862.007 1.084 1.183 2.255 2.265 2.255.753 0 11.168-3.532 11.593-3.932l.366-.344v8.32c0 8.028-.01 8.34-.314 8.935-.203.398-.535.73-.932.932-.61.312-.873.315-24.549.315-23.189 0-23.95-.01-24.513-.297-.34-.174-.726-.554-.932-.92l-.35-.623V39.984l.002-33.512.37-.611c.767-1.268-.79-1.173 19.287-1.18l17.861-.007v6.115zm5.892-5.951c.585.217 7.68 7.278 7.96 7.921.12.277.218.681.218.9v.395h-9.38v-9.38h.38c.21 0 .58.073.822.164zm-37.453 18.89c-.654.35-1.267 1.33-1.268 2.03-.001.756.595 1.72 1.281 2.07.56.285 1.197.296 17.478.296 16.626 0 16.907-.005 17.514-.315.693-.354 1.246-1.254 1.246-2.03 0-.776-.553-1.676-1.246-2.03-.608-.31-.881-.315-17.547-.308-15.998.006-16.958.022-17.458.288zm63.457 4.398c.675.344 1.247 1.25 1.247 1.975 0 .742-.58 1.66-1.835 2.908l-1.22 1.211-1.677-1.683-1.678-1.683 1.29-1.279c.71-.703 1.501-1.387 1.759-1.52.64-.33 1.378-.305 2.114.071zm-63.457 4.983c-.654.348-1.267 1.33-1.268 2.029-.001.756.595 1.72 1.281 2.07.556.283 1.112.296 12.788.296 11.925 0 12.22-.007 12.824-.315.693-.354 1.246-1.254 1.246-2.03 0-.776-.553-1.676-1.246-2.03-.604-.308-.892-.315-12.857-.308-11.48.006-12.272.023-12.768.288zm52.668 10.1l-5.629 5.628-1.68-1.68-1.68-1.68 5.625-5.627 5.626-5.627 1.683 1.678 1.684 1.678-5.63 5.63zm-52.668-.72c-.654.348-1.267 1.33-1.268 2.029-.001.756.595 1.72 1.281 2.07.556.283 1.112.296 12.788.296 11.925 0 12.22-.007 12.824-.315.693-.354 1.246-1.254 1.246-2.03 0-.776-.553-1.676-1.246-2.03-.604-.308-.892-.315-12.857-.308-11.48.006-12.272.024-12.768.288zm42.036 8.07l1.636 1.64-.623.608c-.532.52-.971.723-3.035 1.404-1.327.439-2.434.776-2.46.75-.026-.026.312-1.133.751-2.46.654-1.974.9-2.518 1.359-2.998.307-.323.599-.587.647-.587.049 0 .825.74 1.725 1.642zm-42.036 1.31c-.654.349-1.267 1.33-1.268 2.029-.001.756.595 1.72 1.281 2.07.556.283 1.112.296 12.788.296 11.925 0 12.22-.007 12.824-.315.693-.353 1.246-1.254 1.246-2.03 0-.776-.553-1.676-1.246-2.03-.604-.308-.892-.315-12.857-.308-11.48.006-12.272.024-12.768.288zm18.76 14.383c-.654.348-1.267 1.33-1.268 2.029-.001.756.595 1.72 1.281 2.07.547.278 1.027.296 8.098.296 7.225 0 7.54-.012 8.134-.315.693-.354 1.246-1.254 1.246-2.03 0-.776-.553-1.677-1.246-2.03-.594-.303-.902-.315-8.167-.309-6.964.007-7.59.029-8.077.289z" fill="#fff"/></svg>