<svg width="30" height="35" fill="none" xmlns="http://www.w3.org/2000/svg"><path opacity=".5" d="M8.18 0C3.662 0 0 4.32 0 9.646v15.433c0 5.327 3.663 9.646 8.18 9.646h13.087c4.516 0 8.18-4.32 8.18-9.646V9.646c0-5.327-3.664-9.646-8.18-9.646H8.179zm16.358 3.858c.904 0 1.636.865 1.636 1.93 0 1.064-.732 1.929-1.636 1.929-.902 0-1.635-.865-1.635-1.93 0-1.064.733-1.929 1.636-1.929zm-9.815 3.859c4.517 0 8.18 4.32 8.18 9.646 0 5.326-3.663 9.645-8.18 9.645-4.517 0-8.18-4.32-8.18-9.645 0-5.327 3.663-9.646 8.18-9.646zm0 3.858c-1.302 0-2.55.61-3.47 1.695-.92 1.085-1.438 2.558-1.438 4.093 0 1.534.517 3.006 1.438 4.092.92 1.085 2.168 1.695 3.47 1.695s2.55-.61 3.47-1.695c.92-1.085 1.438-2.558 1.438-4.092 0-1.535-.517-3.008-1.438-4.093-.92-1.085-2.168-1.695-3.47-1.695z" fill="#fff"/></svg>