<svg width="30" height="35" fill="none" xmlns="http://www.w3.org/2000/svg"><path opacity=".5" d="M14.723 0C6.593 0 0 7.774 0 17.363c0 3.257.776 6.294 2.1 8.898L.131 34.725l7.33-2.27c2.144 1.438 4.619 2.27 7.261 2.27 8.13 0 14.723-7.774 14.723-17.363C29.446 7.775 22.854 0 14.723 0zm-5.04 9.263c.24 0 .486-.001.698.012.262.007.548.03.822.743.325.848 1.033 2.975 1.124 3.19.09.216.155.47.028.752-.12.29-.182.465-.359.72-.183.25-.383.559-.549.747-.182.215-.371.452-.16.881.21.43.944 1.839 2.027 2.976 1.393 1.467 2.568 1.918 2.933 2.134.366.215.578.182.788-.108.218-.282.913-1.25 1.158-1.681.24-.431.483-.357.815-.215.336.142 2.129 1.183 2.494 1.399.366.216.606.322.698.497.094.181.094 1.042-.209 2.046-.303 1.003-1.791 1.973-2.459 2.04-.673.074-1.302.358-4.378-1.07-3.71-1.724-6.05-6.205-6.232-6.494-.183-.283-1.486-2.33-1.486-4.443 0-2.12.942-3.157 1.272-3.589.336-.43.73-.537.976-.537z" fill="#fff"/></svg>